<svg width="16" height="16" viewBox="0 0 16 16" fill="none" xmlns="http://www.w3.org/2000/svg">
<path fill-rule="evenodd" clip-rule="evenodd" d="M7.52879 5.52866C7.65381 5.40368 7.82334 5.33347 8.00012 5.33347C8.1769 5.33347 8.34644 5.40368 8.47145 5.52866L12.2428 9.29999C12.3642 9.42572 12.4314 9.59413 12.4299 9.76892C12.4284 9.94372 12.3583 10.1109 12.2347 10.2345C12.1111 10.3581 11.9439 10.4283 11.7691 10.4298C11.5943 10.4313 11.4259 10.3641 11.3001 10.2427L8.00012 6.94266L4.70012 10.2427C4.57439 10.3641 4.40598 10.4313 4.23119 10.4298C4.05639 10.4283 3.88918 10.3581 3.76557 10.2345C3.64197 10.1109 3.57186 9.94372 3.57034 9.76892C3.56882 9.59413 3.63601 9.42572 3.75745 9.29999L7.52879 5.52866Z" fill="#0E0E12"/>
</svg>
