<svg width="16" height="16" viewBox="0 0 16 16" fill="none" xmlns="http://www.w3.org/2000/svg">
<path fill-rule="evenodd" clip-rule="evenodd" d="M8.47124 10.4714C8.34622 10.5963 8.17668 10.6665 7.9999 10.6665C7.82313 10.6665 7.65359 10.5963 7.52857 10.4714L3.75724 6.70003C3.69356 6.63853 3.64277 6.56496 3.60784 6.48363C3.5729 6.40229 3.55451 6.31481 3.55374 6.22629C3.55297 6.13777 3.56983 6.04999 3.60336 5.96806C3.63688 5.88613 3.68638 5.81169 3.74897 5.7491C3.81157 5.6865 3.886 5.637 3.96793 5.60348C4.04986 5.56996 4.13765 5.55309 4.22617 5.55386C4.31469 5.55463 4.40217 5.57302 4.48351 5.60796C4.56484 5.6429 4.63841 5.69368 4.6999 5.75736L7.9999 9.05736L11.2999 5.75736C11.4256 5.63592 11.594 5.56872 11.7688 5.57024C11.9436 5.57176 12.1108 5.64187 12.2344 5.76548C12.3581 5.88908 12.4282 6.05629 12.4297 6.23109C12.4312 6.40589 12.364 6.57429 12.2426 6.70003L8.47124 10.4714Z" fill="#0E0E12"/>
</svg>
